<svg width="340" height="198" viewBox="0 0 340 198" fill="none" xmlns="http://www.w3.org/2000/svg">
<rect width="340" height="198" rx="20" fill="url(#paint0_linear_1_70)"/>
<path d="M145.793 136.064V156H142.209V147.348H131.989V156H128.433V136.064H131.989V144.408H142.209V136.064H145.793ZM156.277 156.224C154.84 156.224 153.57 155.925 152.469 155.328C151.386 154.731 150.546 153.881 149.949 152.78C149.37 151.66 149.081 150.353 149.081 148.86C149.081 147.367 149.37 146.069 149.949 144.968C150.546 143.848 151.386 142.989 152.469 142.392C153.57 141.795 154.84 141.496 156.277 141.496C157.696 141.496 158.946 141.795 160.029 142.392C161.112 142.989 161.942 143.848 162.521 144.968C163.118 146.069 163.417 147.367 163.417 148.86C163.417 150.353 163.118 151.66 162.521 152.78C161.942 153.881 161.112 154.731 160.029 155.328C158.946 155.925 157.696 156.224 156.277 156.224ZM156.249 153.48C157.444 153.48 158.349 153.097 158.965 152.332C159.6 151.548 159.917 150.391 159.917 148.86C159.917 147.348 159.6 146.2 158.965 145.416C158.33 144.613 157.434 144.212 156.277 144.212C155.101 144.212 154.196 144.613 153.561 145.416C152.926 146.2 152.609 147.348 152.609 148.86C152.609 150.391 152.917 151.548 153.533 152.332C154.168 153.097 155.073 153.48 156.249 153.48ZM174.051 141.524C174.593 141.524 175.059 141.599 175.451 141.748L175.423 144.94C174.826 144.697 174.21 144.576 173.575 144.576C172.381 144.576 171.466 144.921 170.831 145.612C170.215 146.303 169.907 147.217 169.907 148.356V156H166.435V145.864C166.435 144.371 166.361 143.036 166.211 141.86H169.487L169.767 144.352C170.122 143.437 170.682 142.737 171.447 142.252C172.213 141.767 173.081 141.524 174.051 141.524ZM185.016 141.524C185.557 141.524 186.024 141.599 186.416 141.748L186.388 144.94C185.791 144.697 185.175 144.576 184.54 144.576C183.345 144.576 182.431 144.921 181.796 145.612C181.18 146.303 180.872 147.217 180.872 148.356V156H177.4V145.864C177.4 144.371 177.325 143.036 177.176 141.86H180.452L180.732 144.352C181.087 143.437 181.647 142.737 182.412 142.252C183.177 141.767 184.045 141.524 185.016 141.524ZM194.504 156.224C193.066 156.224 191.797 155.925 190.696 155.328C189.613 154.731 188.773 153.881 188.176 152.78C187.597 151.66 187.308 150.353 187.308 148.86C187.308 147.367 187.597 146.069 188.176 144.968C188.773 143.848 189.613 142.989 190.696 142.392C191.797 141.795 193.066 141.496 194.504 141.496C195.922 141.496 197.173 141.795 198.256 142.392C199.338 142.989 200.169 143.848 200.748 144.968C201.345 146.069 201.644 147.367 201.644 148.86C201.644 150.353 201.345 151.66 200.748 152.78C200.169 153.881 199.338 154.731 198.256 155.328C197.173 155.925 195.922 156.224 194.504 156.224ZM194.476 153.48C195.67 153.48 196.576 153.097 197.192 152.332C197.826 151.548 198.144 150.391 198.144 148.86C198.144 147.348 197.826 146.2 197.192 145.416C196.557 144.613 195.661 144.212 194.504 144.212C193.328 144.212 192.422 144.613 191.788 145.416C191.153 146.2 190.836 147.348 190.836 148.86C190.836 150.391 191.144 151.548 191.76 152.332C192.394 153.097 193.3 153.48 194.476 153.48ZM212.278 141.524C212.819 141.524 213.286 141.599 213.678 141.748L213.65 144.94C213.052 144.697 212.436 144.576 211.802 144.576C210.607 144.576 209.692 144.921 209.058 145.612C208.442 146.303 208.134 147.217 208.134 148.356V156H204.662V145.864C204.662 144.371 204.587 143.036 204.438 141.86H207.714L207.994 144.352C208.348 143.437 208.908 142.737 209.674 142.252C210.439 141.767 211.307 141.524 212.278 141.524Z" fill="white"/>
<g clip-path="url(#clip0_1_70)">
<path d="M207.919 72.1071C207.682 71.544 207.331 71.0363 206.888 70.616C206.445 70.1958 205.919 69.8722 205.344 69.6659C204.769 69.4596 204.158 69.375 203.548 69.4175C202.939 69.46 202.345 69.6286 201.804 69.9128C199.747 70.9912 197.77 72.2167 195.889 73.5796C195.889 73.3484 195.889 73.1178 195.889 72.8865C195.889 66.0212 193.162 59.4371 188.307 54.5826C183.453 49.7281 176.868 47.0009 170.003 47.0009C163.138 47.0009 156.554 49.7281 151.699 54.5826C146.845 59.4371 144.117 66.0212 144.117 72.8865V73.5796C142.236 72.2167 140.259 70.9912 138.202 69.9128C137.228 69.3956 136.095 69.2622 135.028 69.5388C133.96 69.8155 133.035 70.4822 132.434 71.4074C131.834 72.3326 131.602 73.4491 131.785 74.5369C131.967 75.6246 132.55 76.6045 133.419 77.2834C137.129 80.3125 140.413 83.8281 143.183 87.7353C142.649 92.0196 141.884 96.272 140.892 100.474L137.417 114.615C137.381 114.761 137.376 114.912 137.401 115.06C137.426 115.208 137.482 115.349 137.564 115.474C137.646 115.6 137.753 115.707 137.878 115.79C138.003 115.872 138.144 115.928 138.292 115.953L142.38 116.667C143.106 116.793 143.796 117.074 144.403 117.49C145.011 117.906 145.522 118.448 145.902 119.079L146.399 119.905C147.123 121.102 148.173 122.068 149.427 122.689C150.681 123.31 152.086 123.56 153.477 123.41L154.441 123.304C155.17 123.225 155.908 123.302 156.605 123.532C157.302 123.761 157.943 124.136 158.483 124.632L159.126 125.223C160.177 126.191 161.488 126.83 162.897 127.062C164.307 127.295 165.753 127.11 167.059 126.532L167.917 126.152C168.573 125.862 169.283 125.713 170.001 125.713C170.718 125.713 171.428 125.862 172.084 126.152L172.942 126.532C174.248 127.111 175.694 127.296 177.104 127.063C178.514 126.831 179.824 126.191 180.875 125.223L181.518 124.632C182.059 124.136 182.699 123.761 183.396 123.532C184.093 123.303 184.831 123.225 185.561 123.304L186.524 123.41C187.916 123.561 189.321 123.311 190.575 122.69C191.829 122.069 192.879 121.102 193.602 119.904L194.102 119.08C194.482 118.449 194.993 117.907 195.601 117.49C196.209 117.074 196.899 116.793 197.624 116.667L201.712 115.953C201.86 115.928 202.001 115.872 202.126 115.79C202.252 115.707 202.359 115.6 202.441 115.474C202.523 115.349 202.578 115.208 202.603 115.06C202.629 114.912 202.623 114.761 202.587 114.615L199.115 100.483C198.121 96.2771 197.356 92.0209 196.821 87.7328C199.591 83.8256 202.875 80.31 206.585 77.2809C207.345 76.6849 207.887 75.8552 208.128 74.92C208.37 73.9848 208.296 72.9962 207.919 72.1071V72.1071ZM205.241 75.5553C201.236 78.82 197.71 82.6305 194.764 86.8753C194.625 87.0902 194.566 87.3472 194.596 87.6015C195.143 92.1076 195.94 96.5797 196.984 100.997L200.179 113.997L197.242 114.51C196.208 114.689 195.224 115.089 194.358 115.683C193.492 116.276 192.763 117.048 192.222 117.947L191.722 118.772C191.214 119.612 190.477 120.289 189.597 120.725C188.717 121.161 187.732 121.336 186.756 121.232L185.791 121.126C184.752 121.012 183.7 121.122 182.706 121.449C181.713 121.775 180.8 122.31 180.031 123.018L179.387 123.61C178.65 124.289 177.731 124.738 176.742 124.901C175.753 125.064 174.738 124.935 173.821 124.528L172.964 124.148C172.029 123.734 171.017 123.52 169.995 123.52C168.972 123.52 167.961 123.734 167.026 124.148L166.169 124.528C165.252 124.934 164.237 125.064 163.248 124.9C162.259 124.737 161.34 124.289 160.602 123.61L159.959 123.018C159.19 122.31 158.277 121.775 157.284 121.449C156.29 121.122 155.238 121.012 154.199 121.126L153.234 121.232C152.258 121.336 151.273 121.16 150.394 120.725C149.514 120.289 148.777 119.612 148.268 118.773L147.771 117.947C147.23 117.048 146.501 116.276 145.635 115.683C144.769 115.089 143.785 114.689 142.751 114.51L139.814 113.997L143.011 100.985C144.054 96.5702 144.85 92.1012 145.397 87.5984C145.427 87.3441 145.368 87.0871 145.229 86.8721C142.285 82.6289 138.761 78.8196 134.759 75.5553C134.326 75.2107 134.038 74.7171 133.949 74.1709C133.861 73.6247 133.98 73.0652 134.282 72.6018C134.584 72.1384 135.049 71.8045 135.584 71.6652C136.12 71.526 136.688 71.5915 137.177 71.849C139.761 73.193 142.204 74.7931 144.468 76.6253C144.626 76.7561 144.818 76.84 145.021 76.8672C145.224 76.8944 145.431 76.8639 145.618 76.7792C145.805 76.6944 145.964 76.5589 146.077 76.388C146.191 76.2171 146.254 76.0178 146.259 75.8128C146.283 74.8384 146.302 73.864 146.302 72.889C146.302 66.6039 148.799 60.5762 153.243 56.1319C157.687 51.6876 163.715 49.1909 170 49.1909C176.285 49.1909 182.313 51.6876 186.757 56.1319C191.201 60.5762 193.698 66.6039 193.698 72.889C193.698 73.864 193.717 74.8384 193.741 75.8128C193.746 76.0181 193.808 76.2178 193.922 76.3891C194.035 76.5605 194.194 76.6965 194.381 76.7816C194.568 76.8667 194.775 76.8974 194.978 76.8704C195.182 76.8433 195.374 76.7594 195.532 76.6284C197.796 74.796 200.238 73.1957 202.822 71.8515C203.095 71.7084 203.394 71.6235 203.701 71.6022C204.008 71.5809 204.316 71.6236 204.605 71.7276C204.895 71.8316 205.16 71.9947 205.383 72.2065C205.606 72.4182 205.783 72.6741 205.902 72.9578C206.092 73.4032 206.131 73.899 206.011 74.3685C205.892 74.838 205.621 75.2551 205.241 75.5553V75.5553Z" fill="white"/>
<path d="M161.914 60.8281C159.394 60.8281 157.344 63.3344 157.344 66.4144C157.344 69.4944 159.394 72 161.914 72C164.434 72 166.484 69.4937 166.484 66.4144C166.484 63.335 164.438 60.8281 161.914 60.8281ZM161.914 69.8125C160.623 69.8125 159.531 68.2562 159.531 66.4144C159.531 64.5725 160.625 63.0156 161.914 63.0156C163.203 63.0156 164.297 64.5719 164.297 66.4144C164.297 68.2569 163.206 69.8125 161.914 69.8125Z" fill="white"/>
<path d="M178.086 60.8281C175.566 60.8281 173.516 63.3344 173.516 66.4144C173.516 69.4944 175.566 72 178.086 72C180.606 72 182.656 69.4937 182.656 66.4144C182.656 63.335 180.606 60.8281 178.086 60.8281ZM178.086 69.8125C176.794 69.8125 175.703 68.2562 175.703 66.4144C175.703 64.5725 176.794 63.0156 178.086 63.0156C179.377 63.0156 180.469 64.5719 180.469 66.4144C180.469 68.2569 179.375 69.8125 178.086 69.8125Z" fill="white"/>
<path d="M170 71.2969C167.35 71.2969 165.273 74.4713 165.273 78.5238C165.273 82.5763 167.35 85.75 170 85.75C172.65 85.75 174.726 82.5756 174.726 78.5238C174.726 74.4719 172.65 71.2969 170 71.2969ZM170 83.5625C168.801 83.5625 167.461 81.4075 167.461 78.5238C167.461 75.64 168.801 73.4844 170 73.4844C171.199 73.4844 172.539 75.6394 172.539 78.5238C172.539 81.4081 171.199 83.5625 170 83.5625Z" fill="white"/>
</g>
<defs>
<linearGradient id="paint0_linear_1_70" x1="11" y1="3.00465e-05" x2="325" y2="198" gradientUnits="userSpaceOnUse">
<stop stop-color="#13547A"/>
<stop offset="1" stop-color="#80D0C7"/>
</linearGradient>
<clipPath id="clip0_1_70">
<rect width="80" height="80" fill="white" transform="translate(130 47)"/>
</clipPath>
</defs>
</svg>
