<svg width="340" height="198" viewBox="0 0 340 198" fill="none" xmlns="http://www.w3.org/2000/svg">
<rect width="340" height="198" rx="20" fill="url(#paint0_linear_1_80)"/>
<path d="M126.043 154H122.235L119.687 147.364C119.463 146.748 119.117 146.319 118.651 146.076C118.184 145.833 117.577 145.712 116.831 145.712H113.219V154H109.635V134.064H118.175C120.433 134.064 122.151 134.559 123.327 135.548C124.503 136.537 125.091 137.956 125.091 139.804C125.091 141.129 124.736 142.259 124.027 143.192C123.336 144.107 122.347 144.76 121.059 145.152C122.235 145.395 123.084 146.216 123.607 147.616L126.043 154ZM117.671 142.912C119.033 142.912 120.041 142.66 120.695 142.156C121.348 141.652 121.675 140.887 121.675 139.86C121.675 138.852 121.348 138.105 120.695 137.62C120.06 137.116 119.052 136.864 117.671 136.864H113.163V142.912H117.671ZM135.455 154.224C134.017 154.224 132.748 153.925 131.647 153.328C130.564 152.731 129.724 151.881 129.127 150.78C128.548 149.66 128.259 148.353 128.259 146.86C128.259 145.367 128.548 144.069 129.127 142.968C129.724 141.848 130.564 140.989 131.647 140.392C132.748 139.795 134.017 139.496 135.455 139.496C136.873 139.496 138.124 139.795 139.207 140.392C140.289 140.989 141.12 141.848 141.699 142.968C142.296 144.069 142.595 145.367 142.595 146.86C142.595 148.353 142.296 149.66 141.699 150.78C141.12 151.881 140.289 152.731 139.207 153.328C138.124 153.925 136.873 154.224 135.455 154.224ZM135.427 151.48C136.621 151.48 137.527 151.097 138.143 150.332C138.777 149.548 139.095 148.391 139.095 146.86C139.095 145.348 138.777 144.2 138.143 143.416C137.508 142.613 136.612 142.212 135.455 142.212C134.279 142.212 133.373 142.613 132.739 143.416C132.104 144.2 131.787 145.348 131.787 146.86C131.787 148.391 132.095 149.548 132.711 150.332C133.345 151.097 134.251 151.48 135.427 151.48ZM162.301 139.496C163.906 139.496 165.101 139.981 165.885 140.952C166.669 141.904 167.061 143.36 167.061 145.32V154H163.561V145.432C163.561 144.312 163.374 143.509 163.001 143.024C162.646 142.52 162.049 142.268 161.209 142.268C160.238 142.268 159.473 142.613 158.913 143.304C158.372 143.976 158.101 144.909 158.101 146.104V154H154.601V145.432C154.601 144.331 154.405 143.528 154.013 143.024C153.64 142.52 153.042 142.268 152.221 142.268C151.25 142.268 150.485 142.613 149.925 143.304C149.365 143.976 149.085 144.909 149.085 146.104V154H145.613V143.864C145.613 142.371 145.538 141.036 145.389 139.86H148.665L148.917 142.1C149.328 141.26 149.916 140.616 150.681 140.168C151.465 139.72 152.361 139.496 153.369 139.496C155.534 139.496 156.944 140.392 157.597 142.184C158.045 141.344 158.68 140.691 159.501 140.224C160.341 139.739 161.274 139.496 162.301 139.496ZM184.321 139.86V154H180.877V151.732C180.447 152.516 179.831 153.132 179.029 153.58C178.226 154.009 177.311 154.224 176.285 154.224C175.053 154.224 173.961 153.925 173.009 153.328C172.057 152.731 171.319 151.881 170.797 150.78C170.274 149.679 170.013 148.4 170.013 146.944C170.013 145.488 170.274 144.2 170.797 143.08C171.338 141.941 172.085 141.064 173.037 140.448C173.989 139.813 175.071 139.496 176.285 139.496C177.311 139.496 178.226 139.72 179.029 140.168C179.831 140.597 180.447 141.204 180.877 141.988V139.86H184.321ZM177.237 151.48C178.394 151.48 179.29 151.079 179.925 150.276C180.559 149.473 180.877 148.344 180.877 146.888C180.877 145.395 180.559 144.247 179.925 143.444C179.29 142.641 178.385 142.24 177.209 142.24C176.051 142.24 175.146 142.66 174.493 143.5C173.858 144.321 173.541 145.469 173.541 146.944C173.541 148.4 173.858 149.52 174.493 150.304C175.146 151.088 176.061 151.48 177.237 151.48ZM196.225 139.496C199.603 139.496 201.293 141.437 201.293 145.32V154H197.793V145.488C197.793 144.368 197.578 143.556 197.149 143.052C196.719 142.529 196.057 142.268 195.161 142.268C194.097 142.268 193.238 142.613 192.585 143.304C191.931 143.976 191.605 144.872 191.605 145.992V154H188.133V143.864C188.133 142.371 188.058 141.036 187.909 139.86H191.185L191.437 142.184C191.922 141.325 192.575 140.663 193.397 140.196C194.237 139.729 195.179 139.496 196.225 139.496ZM211.416 154.224C209.941 154.224 208.662 153.925 207.58 153.328C206.497 152.731 205.666 151.891 205.088 150.808C204.509 149.707 204.22 148.419 204.22 146.944C204.22 145.469 204.518 144.172 205.116 143.052C205.732 141.932 206.59 141.064 207.692 140.448C208.812 139.813 210.1 139.496 211.556 139.496C212.564 139.496 213.534 139.655 214.468 139.972C215.42 140.289 216.176 140.728 216.736 141.288L215.756 143.752C215.158 143.267 214.524 142.903 213.852 142.66C213.18 142.399 212.517 142.268 211.864 142.268C210.594 142.268 209.605 142.669 208.896 143.472C208.186 144.256 207.832 145.395 207.832 146.888C207.832 148.381 208.177 149.52 208.868 150.304C209.577 151.088 210.576 151.48 211.864 151.48C212.517 151.48 213.18 151.349 213.852 151.088C214.524 150.827 215.158 150.453 215.756 149.968L216.736 152.432C216.138 152.992 215.364 153.431 214.412 153.748C213.46 154.065 212.461 154.224 211.416 154.224ZM231.462 147.112H221.718C221.792 148.624 222.166 149.744 222.838 150.472C223.528 151.181 224.546 151.536 225.89 151.536C227.439 151.536 228.876 151.032 230.202 150.024L231.21 152.432C230.538 152.973 229.707 153.412 228.718 153.748C227.747 154.065 226.758 154.224 225.75 154.224C223.435 154.224 221.615 153.571 220.29 152.264C218.964 150.957 218.302 149.165 218.302 146.888C218.302 145.451 218.591 144.172 219.17 143.052C219.748 141.932 220.56 141.064 221.606 140.448C222.651 139.813 223.836 139.496 225.162 139.496C227.103 139.496 228.634 140.131 229.754 141.4C230.892 142.651 231.462 144.377 231.462 146.58V147.112ZM225.246 142.016C224.312 142.016 223.547 142.296 222.95 142.856C222.371 143.397 221.998 144.191 221.83 145.236H228.41C228.298 144.172 227.971 143.369 227.43 142.828C226.907 142.287 226.179 142.016 225.246 142.016Z" fill="white"/>
<g clip-path="url(#clip0_1_80)">
<path d="M209.246 77.2615C209.246 71.499 207.056 66.0958 203.081 62.0473C199.083 57.9762 193.721 55.7344 187.983 55.7344C180.675 55.7344 173.962 59.3981 170 65.424C166.038 59.398 159.325 55.7344 152.017 55.7344C146.279 55.7344 140.917 57.9766 136.919 62.0475C132.944 66.0961 130.754 71.4992 130.754 77.2617C130.754 82.6626 132.317 85.8193 133.573 88.356L133.71 88.6321C138.91 99.1666 167.984 123.331 169.219 124.355L169.998 125L170.778 124.357C170.807 124.333 173.55 122.07 177.455 118.682C181.094 121.928 183.987 124.329 184.019 124.355L184.797 125L185.577 124.356C186.341 123.727 204.323 108.856 207.4 102.362L207.486 102.182C208.228 100.62 209.246 98.4798 209.246 95.2246C209.246 92.4002 208.419 89.7268 206.853 87.4431C207.905 85.1868 209.246 81.9331 209.246 77.2615ZM205.276 101.132L205.189 101.315C202.684 106.601 188.325 118.858 184.801 121.818C183.593 120.799 181.111 118.683 178.285 116.141C174.007 112.293 170.575 108.941 168.152 106.259C167.478 105.514 166.883 104.82 166.368 104.182C166.163 103.927 165.97 103.681 165.79 103.444C165.162 102.614 164.696 101.895 164.401 101.297L164.35 101.194C163.636 99.7482 162.826 98.1094 162.826 95.2251C162.826 88.9573 167.653 84.0476 173.815 84.0476C177.982 84.0476 181.775 86.3415 183.716 90.0338L184.799 92.0946L185.882 90.0338C187.823 86.3413 191.616 84.0476 195.783 84.0476C199.213 84.0476 202.379 85.6049 204.469 88.3199C205.993 90.3002 206.798 92.6879 206.798 95.2251C206.799 97.9277 205.99 99.6299 205.276 101.132ZM205.105 85.3637C205.1 85.3587 205.094 85.3538 205.089 85.3487C204.954 85.2179 204.816 85.0907 204.676 84.9663C204.652 84.9446 204.628 84.9226 204.603 84.901C204.463 84.7779 204.32 84.6581 204.175 84.5413C204.146 84.5184 204.118 84.4956 204.089 84.4726C203.94 84.3548 203.79 84.2396 203.636 84.1285C203.623 84.1187 203.609 84.1096 203.596 84.0998C203.448 83.9931 203.297 83.8899 203.145 83.7898C203.121 83.7743 203.098 83.7584 203.075 83.7431C202.919 83.6417 202.76 83.544 202.6 83.4495C202.569 83.4309 202.537 83.4124 202.505 83.394C202.343 83.3001 202.18 83.209 202.014 83.1221C201.994 83.1117 201.974 83.102 201.954 83.0917C201.794 83.0085 201.632 82.9287 201.468 82.8523C201.447 82.8424 201.426 82.8323 201.405 82.8226C201.236 82.7443 201.064 82.6704 200.89 82.5995C200.857 82.5856 200.823 82.5718 200.789 82.5582C200.616 82.489 200.442 82.4228 200.266 82.3609C200.24 82.352 200.214 82.3435 200.189 82.3346C200.017 82.2753 199.844 82.2192 199.669 82.1667C199.652 82.1615 199.635 82.1559 199.618 82.1509C199.436 82.0974 199.254 82.0484 199.069 82.0026C199.034 81.9939 198.999 81.9848 198.963 81.9762C198.781 81.9324 198.599 81.8921 198.415 81.856C198.384 81.8499 198.353 81.8445 198.322 81.8385C198.138 81.8037 197.953 81.7718 197.767 81.7446C197.757 81.7432 197.746 81.7412 197.736 81.7398C197.545 81.7123 197.353 81.6899 197.16 81.6704C197.123 81.6668 197.087 81.6629 197.051 81.6595C196.863 81.642 196.674 81.6284 196.484 81.6187C196.449 81.617 196.414 81.6157 196.379 81.6143C196.181 81.6059 195.983 81.6001 195.783 81.6001C191.394 81.6001 187.345 83.6879 184.799 87.1601C182.254 83.6881 178.205 81.6001 173.816 81.6001C173.135 81.6001 172.462 81.6499 171.802 81.7482C168.942 82.1735 166.318 83.5042 164.267 85.5998C161.76 88.1602 160.379 91.5784 160.379 95.2246C160.379 98.6805 161.365 100.675 162.157 102.278L162.207 102.38C162.254 102.475 162.304 102.571 162.357 102.67C162.374 102.701 162.393 102.734 162.41 102.766C162.447 102.834 162.485 102.902 162.525 102.972C162.548 103.012 162.573 103.053 162.597 103.093C162.635 103.157 162.672 103.221 162.712 103.286C162.739 103.331 162.769 103.377 162.798 103.422C162.837 103.485 162.876 103.547 162.917 103.611C162.949 103.66 162.982 103.71 163.015 103.759C163.056 103.822 163.098 103.885 163.142 103.949C163.176 104.001 163.213 104.053 163.249 104.105C163.293 104.169 163.338 104.234 163.384 104.299C163.422 104.353 163.462 104.408 163.502 104.463C163.549 104.528 163.597 104.594 163.646 104.661C163.687 104.717 163.73 104.775 163.773 104.832C163.824 104.899 163.874 104.966 163.925 105.034C163.97 105.093 164.017 105.153 164.063 105.213C164.116 105.281 164.169 105.35 164.223 105.419C164.272 105.481 164.322 105.543 164.372 105.606C164.427 105.676 164.483 105.746 164.54 105.816C164.592 105.88 164.645 105.944 164.697 106.009C164.756 106.081 164.815 106.153 164.876 106.225C164.93 106.291 164.986 106.358 165.042 106.424C165.104 106.498 165.167 106.572 165.23 106.647C165.288 106.715 165.346 106.783 165.405 106.851C165.47 106.926 165.535 107.003 165.602 107.079C165.663 107.149 165.724 107.22 165.787 107.291C165.854 107.368 165.923 107.446 165.992 107.524C166.056 107.596 166.121 107.668 166.186 107.741C166.257 107.82 166.329 107.9 166.401 107.98C166.469 108.054 166.536 108.128 166.605 108.204C166.678 108.284 166.753 108.366 166.829 108.447C166.899 108.524 166.969 108.6 167.041 108.677C167.117 108.76 167.196 108.843 167.274 108.926C167.347 109.005 167.421 109.084 167.496 109.163C167.575 109.247 167.656 109.332 167.737 109.416C167.814 109.498 167.89 109.578 167.969 109.66C168.051 109.746 168.136 109.833 168.22 109.92C168.3 110.003 168.379 110.085 168.46 110.169C168.547 110.258 168.636 110.348 168.724 110.438C168.805 110.521 168.886 110.604 168.969 110.688C169.062 110.782 169.157 110.878 169.252 110.974C169.334 111.056 169.414 111.137 169.497 111.22C169.595 111.319 169.697 111.419 169.798 111.519C169.958 111.679 170.122 111.841 170.287 112.003C170.39 112.105 170.491 112.205 170.596 112.307C170.689 112.398 170.785 112.491 170.879 112.583C170.979 112.68 171.077 112.776 171.178 112.873C171.277 112.969 171.379 113.067 171.48 113.164C171.579 113.259 171.677 113.353 171.777 113.449C171.88 113.548 171.986 113.649 172.091 113.748C172.192 113.845 172.293 113.941 172.396 114.039C172.501 114.138 172.608 114.239 172.714 114.339C172.82 114.439 172.925 114.539 173.033 114.64C173.141 114.742 173.252 114.845 173.362 114.948C173.47 115.048 173.576 115.148 173.684 115.249C173.799 115.355 173.915 115.463 174.032 115.571C174.139 115.671 174.247 115.77 174.356 115.871C174.473 115.979 174.592 116.088 174.711 116.198C174.823 116.3 174.935 116.403 175.048 116.506C175.167 116.615 175.287 116.725 175.407 116.835C175.48 116.9 175.55 116.965 175.623 117.031C173.073 119.241 171.049 120.944 170.002 121.818C165.264 117.837 140.419 96.6959 135.904 87.5485L135.766 87.2699C134.564 84.8418 133.201 82.0898 133.201 77.2614C133.201 66.5622 141.466 58.1811 152.017 58.1811C159.129 58.1811 165.605 62.0966 168.917 68.3992L170 70.4601L171.083 68.3992C174.396 62.0966 180.871 58.1811 187.984 58.1811C198.534 58.1811 206.799 66.5622 206.799 77.2614C206.799 80.7779 205.964 83.3618 205.105 85.3637Z" fill="white"/>
<path d="M153.113 45H150.666V52.618H153.113V45Z" fill="white"/>
<path d="M162.459 47.2222L159.261 54.1362L161.482 55.1634L164.68 48.2495L162.459 47.2222Z" fill="white"/>
<path d="M141.319 47.2211L139.098 48.2483L142.296 55.1622L144.517 54.135L141.319 47.2211Z" fill="white"/>
<path d="M138.424 78.5975C138.424 78.4825 138.425 78.3677 138.427 78.253L135.981 78.2022C135.978 78.3338 135.977 78.4653 135.977 78.5975C135.977 80.2383 136.143 81.7336 136.487 83.1687L138.867 82.5992C138.568 81.353 138.424 80.0439 138.424 78.5975Z" fill="white"/>
<path d="M141.739 65.1483C138.808 67.9034 136.844 71.6278 136.209 75.6356L138.626 76.0189C139.176 72.5443 140.877 69.317 143.415 66.9314L141.739 65.1483Z" fill="white"/>
<path d="M170.696 86.6932C167.332 88.2534 165.131 91.5656 164.954 95.3374L167.398 95.4524C167.532 92.5942 169.191 90.0886 171.725 88.9132L170.696 86.6932Z" fill="white"/>
</g>
<defs>
<linearGradient id="paint0_linear_1_80" x1="11" y1="1.37127e-05" x2="340" y2="198" gradientUnits="userSpaceOnUse">
<stop stop-color="#FD093F"/>
<stop offset="1" stop-color="#F383F1"/>
</linearGradient>
<clipPath id="clip0_1_80">
<rect width="80" height="80" fill="white" transform="translate(130 45)"/>
</clipPath>
</defs>
</svg>
